PathFileType	4	(X/Y/Z)	C:\Users\Basilio\Documents\Thesis Gigler\squatting_fais\c3dfiles\076\SJ_pre5\markers_experimental.trc
DataRate	CameraRate	NumFrames	NumMarkers	Units	OrigDataRate	OrigDataStartFrame	OrigNumFrames
200.000000	200.000000	4	61	mm	200.000000	483	1289
Frame#	Time	FHD			LBHD			RBHD			C7			T10			CLAV			LSHO			LUUPA			LMUPA			LDUPA			LLEP			LMEP			LRAD			LUL			LRFIN			RSHO			RUPA1			RMUPA			RDUPA			RLEP			RMEP			RRAD			RUL			RUFIN			LASI			RASI			USACR			LSACR			RSACR			LTHI1			LTHI2			LTHI3			LTHI4			LLFC			LMFC			LTIB1			LTIB2			LTIB3			LTIB4			LLMAL			LMMAL			LHEE			LMT1			LMT2			LMT5			RTHI			RTHI2			RTHI3			RTHI4			RLFC			RMFC			RTIB1			RTIB2			RTIB3			RTIB4			RLMAL			RMMAL			RHEE			RMT1			RMT2			RMT5			
		X1	Y1	Z1	X2	Y2	Z2	X3	Y3	Z3	X4	Y4	Z4	X5	Y5	Z5	X6	Y6	Z6	X7	Y7	Z7	X8	Y8	Z8	X9	Y9	Z9	X10	Y10	Z10	X11	Y11	Z11	X12	Y12	Z12	X13	Y13	Z13	X14	Y14	Z14	X15	Y15	Z15	X16	Y16	Z16	X17	Y17	Z17	X18	Y18	Z18	X19	Y19	Z19	X20	Y20	Z20	X21	Y21	Z21	X22	Y22	Z22	X23	Y23	Z23	X24	Y24	Z24	X25	Y25	Z25	X26	Y26	Z26	X27	Y27	Z27	X28	Y28	Z28	X29	Y29	Z29	X30	Y30	Z30	X31	Y31	Z31	X32	Y32	Z32	X33	Y33	Z33	X34	Y34	Z34	X35	Y35	Z35	X36	Y36	Z36	X37	Y37	Z37	X38	Y38	Z38	X39	Y39	Z39	X40	Y40	Z40	X41	Y41	Z41	X42	Y42	Z42	X43	Y43	Z43	X44	Y44	Z44	X45	Y45	Z45	X46	Y46	Z46	X47	Y47	Z47	X48	Y48	Z48	X49	Y49	Z49	X50	Y50	Z50	X51	Y51	Z51	X52	Y52	Z52	X53	Y53	Z53	X54	Y54	Z54	X55	Y55	Z55	X56	Y56	Z56	X57	Y57	Z57	X58	Y58	Z58	X59	Y59	Z59	X60	Y60	Z60	X61	Y61	Z61	

484	2.415	52.1805877685547	1133.837646484375	-884.2896118164065	-96.33405303955081	1089.6572265625	-984.0892333984377	-84.4555130004883	1092.699951171875	-831.6751098632815	-161.9913787841797	1029.0673828125	-911.3062133789065	-403.3690490722657	834.6552734375002	-935.404479980469	-95.87818908691408	885.712585449219	-907.6357421875002	-112.480941772461	941.1511840820315	-1076.635498046875	-193.1022644042969	845.5450439453127	-1225.878051757813	-217.666976928711	804.755554199219	-1217.03955078125	-232.4745330810547	811.611755371094	-1274.616577148438	-271.3661804199219	789.1369628906252	-1311.178955078125	-337.1549377441407	847.0723876953127	-1296.934692382813	-420.8316955566407	714.6600952148439	-1138.326049804688	-410.2030639648439	653.9675292968751	-1160.199829101563	-379.2017517089844	699.2993774414064	-1094.870727539063	-139.9302215576172	936.0095214843752	-748.4537963867189	-259.8750000000001	878.660827636719	-607.5870361328126	-270.6596984863282	829.0943603515627	-607.6104736328126	-308.9894714355469	849.1109619140627	-564.9702758789064	-361.0446166992188	800.1646118164065	-543.5046386718751	-421.2639465332032	849.9040527343752	-589.0695190429689	-452.1011352539064	706.1931152343751	-746.5237426757814	-398.5327453613282	689.6318359375001	-760.6319580078126	-440.179901123047	647.8269042968751	-713.8386840820314	-389.4277648925782	610.1597290039064	-1044.76220703125	-405.295867919922	598.5913085937501	-837.146911621094	-488.6294250488282	758.0469360351564	-937.6948852539065	-512.7816162109376	741.6455688476564	-968.0686645507815	-517.4062500000001	738.4824218750001	-910.6394042968752	-423.0072631835939	583.2450561523439	-1147.250366210938	-341.4482421875001	565.2042846679689	-1144.271850585938	-315.6772460937501	594.7897949218751	-1114.617065429688	-314.6100158691407	510.5608215332032	-1154.313720703125	-194.7352142333985	411.1107788085939	-1143.652465820313	-186.6471710205078	405.552703857422	-1034.160766601563	-205.5384521484376	274.6450195312501	-1067.810180664063	-239.7808837890626	228.9566497802735	-1134.583618164063	-219.4088897705079	223.5405426025391	-1093.7294921875	-274.8219299316407	168.5137939453125	-1063.758422851563	-368.3116149902344	78.41018676757814	-1128.770385742188	-352.2884216308594	88.37181091308595	-1042.14697265625	-434.9278564453126	43.90527343750001	-1087.693969726563	-225.7150268554688	53.33894348144533	-1054.889526367188	-218.7215423583985	53.80772018432619	-1092.62841796875	-232.2657775878907	43.71141052246094	-1145.124755859375	-369.5314636230469	520.6474609375001	-724.1840820312501	-301.0317382812501	523.6312866210939	-715.2978515625001	-282.5571289062501	549.8026733398439	-730.3458862304689	-253.0319061279297	453.0329895019532	-715.0350952148439	-210.1170959472657	420.1273498535157	-714.3881225585939	-188.6387176513672	416.5894470214845	-819.2711181640627	-188.8477935791016	285.7182617187501	-734.1574707031251	-286.3435668945313	240.088851928711	-707.6392822265626	-246.0292358398438	221.5549621582032	-725.4340820312501	-254.9055938720704	177.2299499511719	-762.4568481445314	-366.6286926269532	77.73174285888673	-731.1463012695314	-346.5287170410157	88.82518005371095	-815.1243286132815	-428.0859680175782	50.27880096435548	-777.660827636719	-221.9702758789063	51.95655822753908	-793.021911621094	-217.7016296386719	56.73395919799806	-748.2587890625001	-243.8914489746094	34.73991394042969	-694.8769531250001	
485	2.42	52.37760543823244	1133.639526367188	-884.1418457031252	-96.25148773193362	1089.41064453125	-983.930114746094	-84.27257537841798	1092.584838867188	-831.485778808594	-161.8776092529297	1028.972045898438	-911.1514282226565	-403.2442932128907	834.6768188476565	-935.3209228515627	-95.7333221435547	885.5924072265627	-907.5416259765627	-112.2880859375	941.0950927734377	-1076.514526367188	-193.036605834961	845.5638427734377	-1225.809448242188	-217.6438293457032	804.803649902344	-1216.98486328125	-232.3829650878907	811.6585693359377	-1274.578735351563	-271.2478637695313	789.1412353515627	-1311.200927734375	-337.0161132812501	847.149597167969	-1296.9912109375	-420.7338867187501	714.7161254882814	-1138.2978515625	-410.142303466797	653.9578247070314	-1160.121704101563	-379.2132263183594	699.2974243164064	-1094.830444335938	-139.7825927734375	935.9141235351565	-748.3850097656251	-259.8106384277344	878.5100708007815	-607.4740600585939	-270.5901794433594	828.9617919921877	-607.5409545898439	-308.9115295410157	848.9590454101565	-564.9038085937501	-360.9501037597657	800.038024902344	-543.4448852539064	-421.5065917968751	849.850280761719	-588.7925415039064	-452.0284118652345	706.2026367187501	-746.4912719726564	-398.4963378906251	689.6494140625001	-760.5751953125001	-440.2180480957032	647.7666015625001	-713.8278198242189	-390.0091247558595	609.9364013671876	-1045.01416015625	-405.7116699218751	598.1870117187501	-837.3933715820315	-488.5727539062501	758.0247192382814	-937.7031860351565	-512.7779541015626	741.7845458984376	-968.035095214844	-517.3656005859376	738.5527954101564	-910.6085205078127	-423.1431884765626	583.2893676757814	-1147.278198242188	-341.4091796875001	565.1868896484376	-1144.25341796875	-315.6068420410157	594.7895507812501	-1114.604614257813	-314.6571960449219	510.5578002929689	-1154.347290039063	-194.6143646240235	411.1162719726564	-1143.653198242188	-186.6722717285157	405.5330505371095	-1034.193359375	-205.5542297363282	274.6458740234376	-1067.842041015625	-239.7811737060547	228.9611206054688	-1134.562377929688	-219.4244232177735	223.5211334228516	-1093.752563476563	-274.8198547363282	168.4741668701172	-1063.755126953125	-368.3752136230469	78.42214202880861	-1128.7578125	-352.2459716796876	88.39434814453126	-1042.137084960938	-434.9788208007814	43.93110275268555	-1087.715209960938	-225.6763763427735	53.35278701782228	-1054.8974609375	-218.6764831542969	53.79686737060548	-1092.611938476563	-232.2084045410157	43.64939498901368	-1145.088134765625	-369.5195617675782	520.6164550781251	-724.1457519531251	-301.1023559570313	523.6294555664064	-715.2225341796876	-282.5686950683594	549.8587646484376	-730.2476806640626	-253.0688629150391	453.0188903808595	-714.9495849609376	-210.1494750976563	420.1503295898439	-714.3222656250001	-188.5677795410157	416.6143798828126	-819.2612304687502	-188.8515014648438	285.7275085449219	-734.1195068359376	-286.3622436523438	240.1100311279297	-707.6561889648439	-246.0282440185547	221.5280761718751	-725.4264526367189	-254.9215240478516	177.2709045410157	-762.4587402343751	-366.6197204589844	77.7457962036133	-731.1603393554689	-346.6403503417969	88.8136672973633	-815.1755371093752	-428.0851135253907	50.27370834350587	-777.6719970703127	-221.9572753906251	51.92252349853517	-792.9880371093752	-217.706039428711	56.73594284057619	-748.2611694335939	-243.9265594482422	34.70750045776368	-694.8692626953126	
486	2.425	52.6172332763672	1133.467529296875	-883.976013183594	-96.0498962402344	1089.391357421875	-983.7823486328127	-84.09002685546876	1092.373779296875	-831.3453369140627	-161.7358856201172	1028.811767578125	-911.1121215820315	-403.1692810058595	834.7141723632815	-935.3013916015627	-95.6028518676758	885.4727172851565	-907.468444824219	-112.1060104370117	941.057312011719	-1076.412841796875	-192.9654541015626	845.5283813476565	-1225.734252929688	-217.4147033691407	804.809997558594	-1216.882568359375	-231.8728485107422	811.6269531250002	-1274.81689453125	-271.0996093750001	789.377624511719	-1311.131591796875	-336.9678344726563	847.3151855468752	-1296.938354492188	-420.7007446289064	714.7282104492189	-1138.21630859375	-410.1174621582032	653.9666748046876	-1160.080810546875	-379.1954956054688	699.2890625000001	-1094.820556640625	-139.6605682373047	935.7493896484377	-748.3143310546876	-259.6989746093751	878.352966308594	-607.4080810546876	-270.4997253417969	828.825378417969	-607.4382324218751	-308.7888793945313	848.848327636719	-564.8323974609376	-360.8674926757813	799.938415527344	-543.4117431640626	-421.3210449218751	849.8965454101565	-588.8000488281251	-452.0806274414064	706.1682128906251	-746.4636840820314	-398.4857482910157	689.6149291992189	-760.5025634765626	-440.172821044922	647.7383422851564	-713.8248901367189	-389.876434326172	609.9540405273439	-1044.851440429688	-405.6987609863282	598.3008422851564	-837.2313232421877	-488.4713134765626	758.0841064453126	-937.6750488281252	-512.7123413085939	741.8027343750001	-967.996276855469	-517.3273315429689	738.5881958007814	-910.5908203125002	-423.0753173828126	583.3344116210939	-1147.291381835938	-341.4176940917969	565.1820678710939	-1144.267822265625	-315.5586547851563	594.7930908203126	-1114.602783203125	-314.5409240722657	510.5245666503907	-1154.35498046875	-194.6607666015626	411.119842529297	-1143.674560546875	-186.6345367431641	405.5416259765626	-1034.241333007813	-205.5620422363282	274.6488342285157	-1067.863037109375	-239.7819366455079	228.9214935302735	-1134.600341796875	-219.3812255859376	223.5151519775391	-1093.74365234375	-274.8354187011719	168.4819641113282	-1063.86328125	-368.3707275390626	78.38522338867189	-1128.7431640625	-352.2739562988282	88.40195465087892	-1042.172485351563	-434.9612731933595	43.90967178344727	-1087.695556640625	-225.7629852294922	53.31699752807619	-1054.930419921875	-218.7675018310547	53.76123809814455	-1092.635009765625	-232.2607727050782	43.63806533813477	-1145.140869140625	-369.5552062988282	520.6676635742189	-724.0686645507814	-301.1095275878907	523.6559448242189	-715.1245727539064	-282.5721740722657	549.8673706054689	-730.2225341796876	-253.0973510742188	453.059783935547	-714.9688720703126	-210.2290649414063	420.1151123046876	-714.3096923828126	-188.6361846923828	416.631805419922	-819.1616821289065	-188.8728332519532	285.7345275878907	-734.0556030273439	-286.3820800781251	240.0752868652344	-707.5816650390626	-246.0197753906251	221.5267791748047	-725.4134521484376	-254.9383239746094	177.2262573242188	-762.4212646484376	-366.6450805664063	77.74423980712892	-731.1472167968751	-346.4826965332032	88.78063201904298	-815.121520996094	-428.0957641601564	50.22862625122072	-777.711120605469	-221.9615631103516	51.93040084838869	-793.001159667969	-217.6836547851563	56.75695037841798	-748.2411499023439	-243.9211578369141	34.71921157836915	-694.8654174804689	
487	2.43	52.83572387695314	1133.247802734375	-883.7650146484377	-96.2958679199219	1089.060913085938	-983.5112915039065	-83.90037536621095	1092.24072265625	-831.261657714844	-161.54296875	1028.694702148438	-910.9831542968752	-403.007781982422	834.6677246093752	-935.2320556640627	-95.31722259521486	885.2725830078127	-907.2951660156252	-111.9215545654297	940.938659667969	-1076.239624023438	-192.9786376953126	845.5437011718752	-1225.652587890625	-217.2773132324219	804.7651977539065	-1216.790161132813	-232.1970672607422	811.6984863281252	-1274.421630859375	-270.9728393554688	789.1528930664065	-1310.897216796875	-336.8164062500001	847.3475341796877	-1297.093627929688	-420.6210021972657	714.7825927734376	-1138.203369140625	-410.0401611328126	654.0632324218751	-1160.15283203125	-379.0616455078126	699.3123168945314	-1094.752563476563	-139.5144348144532	935.6428222656252	-748.1782226562501	-259.6119689941407	878.276794433594	-607.3552246093751	-270.4213562011719	828.7207031250002	-607.3878784179689	-308.7198791503907	848.6704711914065	-564.7794799804689	-360.7658996582032	799.8985595703127	-543.3641967773439	-421.1310119628907	849.7981567382815	-588.7581787109376	-451.9886169433595	706.1950073242189	-746.4281616210939	-398.4824523925782	689.6049194335939	-760.5063476562501	-440.2203063964845	647.7262573242189	-713.8073730468751	-389.7686767578126	610.1621704101564	-1044.947509765625	-405.8071289062501	598.1834106445314	-837.359313964844	-488.4262084960939	758.1206665039064	-937.663757324219	-512.5836791992189	741.9529418945314	-968.0120239257815	-517.2739868164064	738.6245117187501	-910.5805664062502	-423.0270385742189	583.3297729492189	-1147.26513671875	-341.3981018066407	565.1899414062501	-1144.262939453125	-315.6158142089844	594.8144531250001	-1114.65283203125	-314.4484252929688	510.5468139648439	-1154.3759765625	-194.7031707763672	411.1631774902345	-1143.778442382813	-186.693099975586	405.4909973144532	-1034.316040039063	-205.5522613525391	274.6443786621094	-1067.942749023438	-239.7775878906251	228.9465332031251	-1134.645263671875	-219.393295288086	223.520736694336	-1093.803955078125	-274.8029479980469	168.4905548095703	-1063.83251953125	-368.3652343750001	78.3723602294922	-1128.752075195313	-352.2543029785157	88.38207244873048	-1042.157470703125	-434.9912414550782	43.91927337646485	-1087.708129882813	-225.6707763671876	53.34094619750978	-1054.911499023438	-218.7511596679688	53.80588912963869	-1092.627807617188	-232.2263488769532	43.61491012573243	-1145.164794921875	-369.5748291015626	520.6467285156251	-724.0531005859376	-301.1221313476563	523.6900634765626	-715.0659790039064	-282.6250610351563	549.8884887695314	-730.1218261718751	-253.1983795166016	453.003631591797	-714.9451293945314	-210.2741394042969	420.1455993652345	-714.2116088867189	-188.63330078125	416.5799255371095	-819.0814208984377	-188.878646850586	285.7567138671876	-733.9461059570314	-286.4266052246094	240.0329742431641	-707.5881347656251	-246.046127319336	221.5516510009766	-725.3710937500001	-254.8998260498047	177.2702331542969	-762.3606567382814	-366.6177062988282	77.7453079223633	-731.1497802734376	-346.5517272949219	88.74537658691408	-815.1692504882815	-428.0869445800782	50.2717742919922	-777.6843872070315	-222.0352325439454	51.89241027832033	-792.9944458007815	-217.6832885742188	56.76015853881837	-748.2599487304689	-243.9428253173829	34.69566726684571	-694.8718872070314	
